<?xml version="1.0" encoding="iso-8859-1"?>
<!-- Generator: Adobe Illustrator 19.0.0, SVG Export Plug-In . SVG Version: 6.00 Build 0)  -->
<svg version="1.1" id="Layer_1" xmlns="http://www.w3.org/2000/svg" xmlns:xlink="http://www.w3.org/1999/xlink" x="0px" y="0px"
	 viewBox="0 0 492.308 492.308" style="enable-background:new 0 0 492.308 492.308;" xml:space="preserve">
<g>
	<g>
		<path d="M447.082,125.24H345.361V99.212C345.361,44.51,300.856,0,246.154,0s-99.207,44.51-99.207,99.212v26.029H45.226
			L11.75,492.308h468.808L447.082,125.24z M166.639,99.212c0-43.846,35.668-79.519,79.514-79.519
			c43.846,0,79.514,35.673,79.514,79.519v26.029H166.639V99.212z M335.514,212.452c13.269,0,20.563,5.894,20.563,7.846
			c0,1.952-7.293,7.856-20.563,7.856s-20.563-5.904-20.563-7.856C314.952,218.346,322.245,212.452,335.514,212.452z
			 M156.793,212.452c13.269,0,20.563,5.894,20.563,7.846c0,1.952-7.293,7.856-20.563,7.856s-20.563-5.904-20.563-7.856
			C136.231,218.346,143.524,212.452,156.793,212.452z M63.207,144.933h83.74v48.677c-17.845,2.865-30.409,13.341-30.409,26.689
			c0,15.702,17.308,27.548,40.255,27.548c22.947,0,40.255-11.846,40.255-27.548c0-13.347-12.564-23.823-30.409-26.689v-48.677
			h159.029v48.677c-17.845,2.865-30.409,13.341-30.409,26.689c0,15.702,17.308,27.548,40.255,27.548
			c22.947,0,40.255-11.846,40.255-27.548c0-13.347-12.564-23.823-30.409-26.689v-48.677h83.74l29.889,327.683H33.317L63.207,144.933
			z"/>
	</g>
</g>
<g>
</g>
<g>
</g>
<g>
</g>
<g>
</g>
<g>
</g>
<g>
</g>
<g>
</g>
<g>
</g>
<g>
</g>
<g>
</g>
<g>
</g>
<g>
</g>
<g>
</g>
<g>
</g>
<g>
</g>
</svg>
